<?xml version="1.0" encoding="iso-8859-1"?>
<!-- Uploaded to: SVG Repo, www.svgrepo.com, Transformed by: SVG Repo Mixer Tools -->
<svg fill="#000000" height="800px" width="800px" version="1.1" id="Layer_1" xmlns="http://www.w3.org/2000/svg" xmlns:xlink="http://www.w3.org/1999/xlink" 
	 viewBox="0 0 512 512" xml:space="preserve">
<path d="M501.404,279.462c-2.869-8.763-12.299-13.537-21.062-10.673l-22.835,7.475c-2.548-13.633-6.225-27.437-11.008-41.176
	C485.4,220.098,512,182.509,512,139.375c0-56.57-46.023-102.594-102.594-102.594c-35.396,0-67.572,17.943-86.224,46.943
	c-43.799-21.545-90.548-21.555-134.365,0c-18.652-28.998-50.828-46.943-86.224-46.943C46.023,36.782,0,82.805,0,139.375
	c0,43.134,26.6,80.722,65.501,95.713c-4.779,13.744-8.456,27.549-11.004,41.178l-22.84-7.476
	c-8.766-2.865-18.193,1.911-21.062,10.673c-2.868,8.764,1.91,18.194,10.673,21.062l29.249,9.574
	c-1.003,22.293,1.266,44.993,8.899,66.152L21.832,387.1c-8.859,2.557-13.968,11.812-11.41,20.67
	c2.558,8.862,11.815,13.968,20.67,11.41l43.973-12.694c38.777,55.062,114.257,68.733,180.933,68.733
	c66.73,0,142.172-13.693,180.934-68.733l43.973,12.693c8.86,2.559,18.115-2.553,20.67-11.41c2.558-8.859-2.551-18.114-11.41-20.67
	l-37.584-10.849c7.65-21.205,9.898-43.914,8.9-66.151l29.249-9.574C499.495,297.656,504.273,288.226,501.404,279.462z
	 M312.803,115.928c-3.773,49.432-28.621,89.521-56.803,89.521s-53.029-40.087-56.803-89.521
	C235.169,96.663,274.139,95.223,312.803,115.928z M256,378.54c-19.574,0-34.756-9.771-34.756-18.177s15.182-18.176,34.756-18.176
	s34.756,9.77,34.756,18.176S275.574,378.54,256,378.54z M420.379,366.954l-41.816-12.071c-8.863-2.561-18.115,2.551-20.67,11.41
	c-2.558,8.859,2.551,18.114,11.41,20.67l32.864,9.486c-30.674,33.537-83.885,43.309-129.47,45.058v-31.083
	c29.885-5.498,51.452-25.52,51.452-50.062c0-28.916-29.934-51.567-68.147-51.567s-68.147,22.652-68.147,51.567
	c0,24.543,21.566,44.563,51.452,50.062v31.083c-45.602-1.751-98.803-11.528-129.47-45.058l32.863-9.486
	c8.859-2.557,13.968-11.812,11.41-20.67c-2.557-8.859-11.806-13.969-20.67-11.41l-41.814,12.07
	c-5.193-13.41-7.815-28.704-7.926-45.993l49.176,16.098c8.79,2.873,18.199-1.932,21.062-10.673
	c2.868-8.763-1.91-18.194-10.673-21.062l-56.727-18.569c3.041-18.231,8.475-36.999,16.148-55.519l0.168-0.404
	c4.464-9.918-1.616-21.413-12.337-23.296c-33.099-5.815-57.123-34.48-57.123-68.159c0-38.158,31.044-69.202,69.202-69.202
	c27.211,0,51.597,15.721,62.879,40.279C168.041,181.238,205.856,238.84,256,238.84c56.462,0,88.326-67.681,90.527-128.388
	c11.282-24.559,35.669-40.279,62.879-40.279c38.158,0,69.202,31.044,69.202,69.202c0,33.681-24.024,62.346-57.123,68.159
	c-10.533,1.849-16.644,13.014-12.514,22.888c7.86,18.79,13.416,37.833,16.499,56.33l-56.733,18.571
	c-8.763,2.868-13.541,12.298-10.673,21.062c2.868,8.76,12.292,13.541,21.062,10.673l49.178-16.098
	C428.193,338.248,425.572,353.543,420.379,366.954z M193.363,260.946c0.011-12.198-9.868-22.095-22.066-22.106
	c-12.198-0.011-22.095,9.868-22.106,22.066c-0.011,12.198,9.868,22.095,22.066,22.106
	C183.456,283.024,193.353,273.144,193.363,260.946z M361.942,261.092c0.011-12.198-9.868-22.095-22.066-22.106
	c-12.198-0.011-22.095,9.868-22.106,22.066s9.868,22.095,22.066,22.106S361.931,273.29,361.942,261.092z"/>
</svg>